<svg width="401" height="80" viewBox="0 0 401 80" fill="none" xmlns="http://www.w3.org/2000/svg">
<path d="M120.375 63.75C118.312 64.125 115.531 64.3125 112.031 64.3125C108.552 64.3125 105.406 63.8333 102.594 62.875C99.8021 61.9167 97.3958 60.5 95.375 58.625C91.0417 54.6042 88.875 49 88.875 41.8125C88.875 37.125 89.9896 33.0625 92.2188 29.625C95.2396 24.9792 99.875 22.0208 106.125 20.75C108.042 20.375 110.323 20.1875 112.969 20.1875C115.635 20.1875 117.771 20.3333 119.375 20.625V26.5938C117.917 26.1354 115.656 25.9062 112.594 25.9062C109.552 25.9062 106.969 26.2812 104.844 27.0312C102.719 27.7812 100.958 28.8542 99.5625 30.25C96.7708 32.9792 95.375 36.8333 95.375 41.8125C95.375 46.8333 96.75 50.8125 99.5 53.75C102.479 56.9167 106.76 58.5 112.344 58.5C115.615 58.5 118.292 58.25 120.375 57.75V63.75ZM129.562 17.5H135.812V51.7812C135.812 55.9062 136.75 58.3333 138.625 59.0625C139.25 59.3125 139.917 59.4375 140.625 59.4375C141.333 59.4375 141.969 59.3542 142.531 59.1875V64L141.375 64.125C141 64.1667 140.635 64.1875 140.281 64.1875C136.281 64.1875 133.396 62.875 131.625 60.25C130.25 58.1875 129.562 55.375 129.562 51.8125V17.5ZM151.031 58.25C150.344 57.0625 149.792 55.6667 149.375 54.0625C148.979 52.4583 148.781 50.3646 148.781 47.7812C148.781 45.1979 149.333 42.8229 150.438 40.6562C151.562 38.4688 153.021 36.6771 154.812 35.2812C158.292 32.5938 162.615 31.25 167.781 31.25C170.469 31.25 172.5 31.3125 173.875 31.4375C173.875 31.4375 174.885 31.5417 176.906 31.75V64H171.281L171.031 60.2812C169.781 61.9479 167.875 63.1875 165.312 64C164.333 64.3125 163.323 64.4688 162.281 64.4688C161.26 64.4688 160.25 64.3646 159.25 64.1562C158.25 63.9479 157.25 63.6042 156.25 63.125C155.271 62.6458 154.333 62.0104 153.438 61.2188C152.542 60.4062 151.74 59.4167 151.031 58.25ZM170.656 36.3438C169.323 36.1771 167.99 36.0938 166.656 36.0938C165.344 36.0938 163.938 36.3333 162.438 36.8125C160.938 37.2708 159.656 38 158.594 39C156.385 41.0833 155.281 44.2604 155.281 48.5312C155.281 52.5729 156.229 55.5625 158.125 57.5C159.562 58.9375 161.292 59.6562 163.312 59.6562C165.917 59.6562 168.062 58.7083 169.75 56.8125C170.167 56.3333 170.469 55.9062 170.656 55.5312V36.3438ZM207.406 37.4688C206.26 37.1354 204.885 36.9688 203.281 36.9688C201.698 36.9688 200.396 37.1354 199.375 37.4688C198.354 37.7812 197.458 38.1667 196.688 38.625C195.271 39.4583 194.24 40.3958 193.594 41.4375V64H187.344V31.75H193.344L193.594 36.2188C195.156 34.2604 197.438 32.7917 200.438 31.8125C201.521 31.4375 202.76 31.25 204.156 31.25C205.552 31.25 206.635 31.3542 207.406 31.5625V37.4688ZM220.875 22.375C220.875 23.5625 220.479 24.4792 219.688 25.125C218.917 25.75 217.948 26.0625 216.781 26.0625C215.615 26.0625 214.646 25.75 213.875 25.125C213.125 24.4792 212.75 23.5625 212.75 22.375C212.75 21.1667 213.125 20.25 213.875 19.625C214.646 19 215.615 18.6875 216.781 18.6875C217.948 18.6875 218.917 19 219.688 19.625C220.479 20.25 220.875 21.1667 220.875 22.375ZM213.562 31.75H219.812V64H213.562V31.75ZM227.562 47.8125C227.562 42.75 229.177 38.6458 232.406 35.5C235.427 32.5625 239.167 31.0938 243.625 31.0938C248 31.0938 251.656 32.5625 254.594 35.5C257.719 38.625 259.281 42.7292 259.281 47.8125C259.281 52.875 257.708 56.9583 254.562 60.0625C251.583 63.0208 247.927 64.5 243.594 64.5C239.198 64.5 235.469 63.0208 232.406 60.0625C229.177 56.9583 227.562 52.875 227.562 47.8125ZM234.062 47.8125C234.062 53.1458 235.771 56.7708 239.188 58.6875C240.396 59.3542 241.844 59.6875 243.531 59.6875C245.219 59.6875 246.646 59.3542 247.812 58.6875C248.979 58 249.938 57.1042 250.688 56C252.083 53.875 252.781 51.1458 252.781 47.8125C252.781 42.5208 251.104 38.8958 247.75 36.9375C246.583 36.25 245.188 35.9062 243.562 35.9062C241.938 35.9062 240.521 36.25 239.312 36.9375C238.125 37.6042 237.146 38.4896 236.375 39.5938C234.833 41.7604 234.062 44.5 234.062 47.8125ZM266.938 20.5H273.188V58.5H291.812V64H266.938V20.5ZM300.469 58.25C299.781 57.0625 299.229 55.6667 298.812 54.0625C298.417 52.4583 298.219 50.3646 298.219 47.7812C298.219 45.1979 298.771 42.8229 299.875 40.6562C301 38.4688 302.458 36.6771 304.25 35.2812C307.729 32.5938 312.052 31.25 317.219 31.25C319.906 31.25 321.938 31.3125 323.312 31.4375C323.312 31.4375 324.323 31.5417 326.344 31.75V64H320.719L320.469 60.2812C319.219 61.9479 317.312 63.1875 314.75 64C313.771 64.3125 312.76 64.4688 311.719 64.4688C310.698 64.4688 309.688 64.3646 308.688 64.1562C307.688 63.9479 306.688 63.6042 305.688 63.125C304.708 62.6458 303.771 62.0104 302.875 61.2188C301.979 60.4062 301.177 59.4167 300.469 58.25ZM320.094 36.3438C318.76 36.1771 317.427 36.0938 316.094 36.0938C314.781 36.0938 313.375 36.3333 311.875 36.8125C310.375 37.2708 309.094 38 308.031 39C305.823 41.0833 304.719 44.2604 304.719 48.5312C304.719 52.5729 305.667 55.5625 307.562 57.5C309 58.9375 310.729 59.6562 312.75 59.6562C315.354 59.6562 317.5 58.7083 319.188 56.8125C319.604 56.3333 319.906 55.9062 320.094 55.5312V36.3438ZM350.875 36.625C347.771 36.625 345.01 37.6771 342.594 39.7812V64H336.344V31.75H342.125L342.562 35.25C345.958 32.5833 349.469 31.25 353.094 31.25C356.927 31.25 359.74 32.3958 361.531 34.6875C363.406 37.1042 364.344 41 364.344 46.375V64H358.094V46.375C358.094 41.2083 356.698 38.125 353.906 37.125C353.01 36.7917 352 36.625 350.875 36.625ZM388.781 64.5C376.99 64.5 371.094 58.7396 371.094 47.2188C371.094 42.2604 372.729 38.2917 376 35.3125C378.938 32.6042 382.292 31.25 386.062 31.25C390.167 31.25 393.375 32.625 395.688 35.375C397.833 37.9375 398.906 41.3646 398.906 45.6562V48.0938H377.594C377.594 53.9896 380 57.5938 384.812 58.9062C385.958 59.2188 387.719 59.375 390.094 59.375C392.49 59.375 394.833 59.0521 397.125 58.4062V63.6875C394.833 64.2292 392.052 64.5 388.781 64.5ZM392.656 43.5C392.656 41.5 392.104 39.8125 391 38.4375C389.708 36.8542 387.927 36.0625 385.656 36.0625C383.26 36.0625 381.312 36.8229 379.812 38.3438C378.438 39.7604 377.75 41.4792 377.75 43.5H392.656Z" fill="#9810FA"/>
<path d="M40 23.3333V70M40 23.3333C40 19.7971 38.5953 16.4057 36.0948 13.9052C33.5943 11.4048 30.2029 10 26.6667 10H10C9.11597 10 8.26812 10.3512 7.643 10.9763C7.01788 11.6014 6.66669 12.4493 6.66669 13.3333V56.6667C6.66669 57.5507 7.01788 58.3986 7.643 59.0237C8.26812 59.6488 9.11597 60 10 60H30C32.6522 60 35.1957 61.0536 37.0711 62.9289C38.9465 64.8043 40 67.3478 40 70M40 23.3333C40 19.7971 41.4048 16.4057 43.9053 13.9052C46.4057 11.4048 49.7971 10 53.3334 10H70C70.8841 10 71.7319 10.3512 72.357 10.9763C72.9822 11.6014 73.3334 12.4493 73.3334 13.3333V56.6667C73.3334 57.5507 72.9822 58.3986 72.357 59.0237C71.7319 59.6488 70.8841 60 70 60H50C47.3479 60 44.8043 61.0536 42.929 62.9289C41.0536 64.8043 40 67.3478 40 70" stroke="#9810FA" stroke-width="10" stroke-linecap="round" stroke-linejoin="round"/>
</svg>
