<svg width="80" height="80" viewBox="0 0 80 80" fill="none" xmlns="http://www.w3.org/2000/svg">
<path d="M40 23.3333V70M40 23.3333C40 19.7971 38.5953 16.4057 36.0948 13.9052C33.5943 11.4048 30.2029 10 26.6667 10H10C9.11597 10 8.26812 10.3512 7.643 10.9763C7.01788 11.6014 6.66669 12.4493 6.66669 13.3333V56.6667C6.66669 57.5507 7.01788 58.3986 7.643 59.0237C8.26812 59.6488 9.11597 60 10 60H30C32.6522 60 35.1957 61.0536 37.0711 62.9289C38.9465 64.8043 40 67.3478 40 70M40 23.3333C40 19.7971 41.4048 16.4057 43.9053 13.9052C46.4057 11.4048 49.7971 10 53.3334 10H70C70.8841 10 71.7319 10.3512 72.357 10.9763C72.9822 11.6014 73.3334 12.4493 73.3334 13.3333V56.6667C73.3334 57.5507 72.9822 58.3986 72.357 59.0237C71.7319 59.6488 70.8841 60 70 60H50C47.3479 60 44.8043 61.0536 42.929 62.9289C41.0536 64.8043 40 67.3478 40 70" stroke="#9810FA" stroke-width="10" stroke-linecap="round" stroke-linejoin="round"/>
</svg>
